<mxfile host="app.diagrams.net" agent="Mozilla/5.0 (Windows NT 10.0; Win64; x64) AppleWebKit/537.36 (KHTML, like Gecko) Chrome/131.0.0.0 Safari/537.36 Edg/131.0.0.0" version="26.0.10">
  <diagram id="6a731a19-8d31-9384-78a2-239565b7b9f0" name="Page-1">
    <mxGraphModel dx="1985" dy="1180" grid="1" gridSize="10" guides="1" tooltips="1" connect="1" arrows="1" fold="1" page="1" pageScale="1" pageWidth="1169" pageHeight="827" background="none" math="0" shadow="0">
      <root>
        <mxCell id="0" />
        <mxCell id="1" parent="0" />
        <mxCell id="1350" value="Constitutive" style="ellipse;whiteSpace=wrap;html=1;shadow=0;fontFamily=Helvetica;fontSize=30;fontColor=#FFFFFF;align=center;strokeWidth=3;fillColor=#1699D3;strokeColor=none;fontStyle=1" parent="1" vertex="1">
          <mxGeometry x="480" y="418" width="183.5" height="182" as="geometry" />
        </mxCell>
        <mxCell id="1352" value="Compatibility" style="ellipse;whiteSpace=wrap;html=1;shadow=0;fontFamily=Helvetica;fontSize=30;fontColor=#FFFFFF;align=center;strokeWidth=3;fillColor=#E85642;strokeColor=none;fontStyle=1" parent="1" vertex="1">
          <mxGeometry x="1460" y="476.5" width="190" height="183.5" as="geometry" />
        </mxCell>
        <mxCell id="tunzIx4tNhsC5PCZ-3-s-1543" value="" style="edgeStyle=orthogonalEdgeStyle;rounded=0;orthogonalLoop=1;jettySize=auto;html=1;" edge="1" parent="1" source="1355" target="tunzIx4tNhsC5PCZ-3-s-1542">
          <mxGeometry relative="1" as="geometry" />
        </mxCell>
        <mxCell id="1355" value="Equilibrium" style="ellipse;whiteSpace=wrap;html=1;shadow=0;fontFamily=Helvetica;fontSize=30;fontColor=#FFFFFF;align=center;strokeWidth=3;fillColor=#F08705;strokeColor=none;fontStyle=1" parent="1" vertex="1">
          <mxGeometry x="940" y="1070" width="230" height="235" as="geometry" />
        </mxCell>
        <mxCell id="1359" style="endArrow=none;strokeWidth=6;strokeColor=#1699D3;html=1;" parent="1" source="1515" target="1350" edge="1">
          <mxGeometry relative="1" as="geometry" />
        </mxCell>
        <mxCell id="1361" style="endArrow=none;strokeWidth=6;strokeColor=#E85642;html=1;" parent="1" source="1515" target="1352" edge="1">
          <mxGeometry relative="1" as="geometry" />
        </mxCell>
        <mxCell id="1365" value="" style="edgeStyle=none;endArrow=none;strokeWidth=6;strokeColor=#F08705;html=1;" parent="1" source="1515" target="1355" edge="1">
          <mxGeometry x="181" y="226.5" width="100" height="100" as="geometry">
            <mxPoint x="181" y="326.5" as="sourcePoint" />
            <mxPoint x="281" y="226.5" as="targetPoint" />
          </mxGeometry>
        </mxCell>
        <mxCell id="1515" value="Analysis" style="ellipse;whiteSpace=wrap;html=1;shadow=0;fontFamily=Helvetica;fontSize=30;fontColor=#2F5B7C;align=center;strokeColor=#2F5B7C;strokeWidth=6;fillColor=#FFFFFF;fontStyle=1;gradientColor=none;" parent="1" vertex="1">
          <mxGeometry x="940" y="610" width="270" height="270" as="geometry" />
        </mxCell>
        <mxCell id="tunzIx4tNhsC5PCZ-3-s-1547" value="" style="edgeStyle=orthogonalEdgeStyle;rounded=0;orthogonalLoop=1;jettySize=auto;html=1;" edge="1" parent="1" source="tunzIx4tNhsC5PCZ-3-s-1542">
          <mxGeometry relative="1" as="geometry">
            <mxPoint x="1512.5" y="1174.4285714285718" as="targetPoint" />
          </mxGeometry>
        </mxCell>
        <mxCell id="tunzIx4tNhsC5PCZ-3-s-1542" value="&lt;font style=&quot;font-size: 19px;&quot;&gt;Equations&lt;/font&gt;&lt;div style=&quot;line-height: 90%;&quot;&gt;&lt;font style=&quot;font-size: 10px;&quot;&gt;NET FORCE X; NET FORCE Y; Moment&lt;/font&gt;&lt;/div&gt;" style="whiteSpace=wrap;html=1;fontSize=30;fillColor=#F08705;strokeColor=none;fontColor=#FFFFFF;shadow=0;strokeWidth=3;fontStyle=1;" vertex="1" parent="1">
          <mxGeometry x="1305" y="1157.5" width="125" height="102.5" as="geometry" />
        </mxCell>
        <mxCell id="tunzIx4tNhsC5PCZ-3-s-1552" value="" style="edgeStyle=orthogonalEdgeStyle;rounded=0;orthogonalLoop=1;jettySize=auto;html=1;" edge="1" parent="1" source="tunzIx4tNhsC5PCZ-3-s-1549" target="tunzIx4tNhsC5PCZ-3-s-1551">
          <mxGeometry relative="1" as="geometry" />
        </mxCell>
        <mxCell id="tunzIx4tNhsC5PCZ-3-s-1553" style="edgeStyle=orthogonalEdgeStyle;rounded=0;orthogonalLoop=1;jettySize=auto;html=1;exitX=0;exitY=0;exitDx=0;exitDy=0;" edge="1" parent="1" source="tunzIx4tNhsC5PCZ-3-s-1549" target="tunzIx4tNhsC5PCZ-3-s-1554">
          <mxGeometry relative="1" as="geometry">
            <mxPoint x="1480" y="970" as="targetPoint" />
          </mxGeometry>
        </mxCell>
        <mxCell id="tunzIx4tNhsC5PCZ-3-s-1549" value="Sign Language" style="rounded=1;whiteSpace=wrap;html=1;" vertex="1" parent="1">
          <mxGeometry x="1530" y="1000" width="120" height="60" as="geometry" />
        </mxCell>
        <mxCell id="tunzIx4tNhsC5PCZ-3-s-1551" value="Coordinate System" style="rounded=1;whiteSpace=wrap;html=1;" vertex="1" parent="1">
          <mxGeometry x="1580" y="900" width="120" height="60" as="geometry" />
        </mxCell>
        <mxCell id="tunzIx4tNhsC5PCZ-3-s-1554" value="Tension is POSITVE" style="ellipse;whiteSpace=wrap;html=1;aspect=fixed;" vertex="1" parent="1">
          <mxGeometry x="1440" y="930" width="80" height="80" as="geometry" />
        </mxCell>
        <mxCell id="tunzIx4tNhsC5PCZ-3-s-1556" value="&lt;font style=&quot;font-size: 20px;&quot;&gt;Unknowns&lt;/font&gt;" style="rounded=1;whiteSpace=wrap;html=1;" vertex="1" parent="1">
          <mxGeometry x="1150" y="1305" width="120" height="60" as="geometry" />
        </mxCell>
        <mxCell id="tunzIx4tNhsC5PCZ-3-s-1557" value="Displacements&lt;div&gt;Support Reactions&lt;/div&gt;&lt;div&gt;Member Forces&lt;/div&gt;&lt;div&gt;Elongation&lt;/div&gt;&lt;div&gt;&lt;br&gt;&lt;/div&gt;" style="rounded=1;whiteSpace=wrap;html=1;" vertex="1" parent="1">
          <mxGeometry x="1320" y="1320" width="120" height="80" as="geometry" />
        </mxCell>
        <mxCell id="tunzIx4tNhsC5PCZ-3-s-1558" value="Unit Load/Virtual Work Method" style="rounded=1;whiteSpace=wrap;html=1;" vertex="1" parent="1">
          <mxGeometry x="1490" y="1400" width="120" height="60" as="geometry" />
        </mxCell>
        <mxCell id="tunzIx4tNhsC5PCZ-3-s-1559" value="Displacement Method" style="rounded=1;whiteSpace=wrap;html=1;" vertex="1" parent="1">
          <mxGeometry x="1350" y="1430" width="120" height="60" as="geometry" />
        </mxCell>
        <mxCell id="tunzIx4tNhsC5PCZ-3-s-1560" value="Method Of Sections" style="rounded=1;whiteSpace=wrap;html=1;" vertex="1" parent="1">
          <mxGeometry x="1600" y="1245" width="120" height="60" as="geometry" />
        </mxCell>
        <mxCell id="tunzIx4tNhsC5PCZ-3-s-1561" value="Method of Joints" style="rounded=0;whiteSpace=wrap;html=1;" vertex="1" parent="1">
          <mxGeometry x="1600" y="1320" width="120" height="60" as="geometry" />
        </mxCell>
      </root>
    </mxGraphModel>
  </diagram>
</mxfile>
